<?xml version="1.0" standalone="no"?>
<!DOCTYPE svg PUBLIC "-//W3C//DTD SVG 20010904//EN"
 "http://www.w3.org/TR/2001/REC-SVG-20010904/DTD/svg10.dtd">
<svg version="1.0" xmlns="http://www.w3.org/2000/svg"
 width="1024.000000pt" height="1024.000000pt" viewBox="0 0 1024.000000 1024.000000"
 preserveAspectRatio="xMidYMid meet">
<metadata>
Created by potrace 1.16, written by Peter Selinger 2001-2019
</metadata>
<g transform="translate(0.000000,1024.000000) scale(0.100000,-0.100000)"
fill="#000000" stroke="none">
<path d="M0 5120 l0 -5120 5120 0 5120 0 0 5120 0 5120 -5120 0 -5120 0 0
-5120z m9594 4735 c47 -6 57 -4 51 7 -4 7 2 2 13 -12 23 -27 9 -49 -16 -27
-10 8 -161 14 -526 19 -640 9 -7966 9 -7966 0 0 -4 -100 -6 -222 -4 -136 2
-218 6 -212 12 5 5 61 11 124 12 238 7 8698 0 8754 -7z m-8955 -152 c-7 -19
-8 -77 -4 -170 6 -130 13 -160 30 -134 5 9 44 7 100 -4 34 -7 75 -53 75 -84 0
-28 -37 -87 -48 -77 -3 3 2 14 10 23 29 34 30 59 3 91 -32 39 -83 49 -130 26
-41 -19 -50 -45 -41 -112 3 -25 5 -1702 4 -3726 -2 -2025 -2 -3793 -1 -3931 1
-175 -1 -235 -8 -200 -5 29 -9 1130 -10 2605 -2 1936 -5 2560 -14 2575 -15 27
-26 55 -19 55 2 0 9 -10 14 -22 6 -16 9 8 10 82 2 106 2 2579 0 2853 -1 101 3
153 11 163 19 23 29 16 18 -13z m9265 -2528 c-3 -2264 -3 -2231 -3 -3745 0
-1685 -1 -1857 -11 -1735 -4 50 -6 1145 -4 2435 2 1290 3 2446 3 2570 -4 1451
-4 2898 1 2910 11 31 16 -902 14 -2435z m-1499 2348 c-3 -16 -8 -42 -10 -59
-5 -51 -80 -179 -83 -142 0 7 -4 24 -8 37 -5 18 -4 22 5 16 9 -5 12 1 9 21 -2
24 -8 28 -32 29 -35 0 -42 14 -21 40 10 14 14 16 15 6 0 -10 7 -7 23 8 25 26
88 69 101 70 4 1 5 -11 1 -26z m-7845 -665 c-12 -10 -28 -18 -36 -18 -19 0
-18 -26 2 -34 8 -3 26 1 40 10 22 15 24 15 24 0 0 -9 -4 -16 -10 -16 -5 0 -10
-6 -10 -13 0 -7 -10 -17 -22 -22 -13 -6 -25 -21 -26 -34 -2 -13 -12 -25 -22
-28 -14 -4 -18 -14 -17 -49 0 -24 4 -44 10 -44 5 0 6 7 3 16 -5 13 -2 14 11 8
10 -4 32 -7 49 -7 28 1 30 -1 26 -23 -5 -28 -14 -30 -32 -9 -7 8 -18 15 -26
15 -20 0 2 -52 36 -85 28 -26 43 -74 20 -60 -6 4 -8 11 -5 16 4 5 -1 12 -9 15
-9 3 -16 12 -16 20 0 27 -69 -1 -70 -28 0 -12 35 -9 48 4 9 9 12 9 12 0 0 -6
-8 -16 -17 -21 -17 -10 -17 -12 1 -26 10 -8 22 -12 26 -10 4 2 5 -7 2 -20 -5
-27 -22 -35 -22 -11 0 24 -22 31 -36 12 -26 -36 31 -118 71 -102 8 3 15 1 15
-3 0 -5 -6 -11 -12 -14 -10 -3 -8 -9 5 -24 9 -11 14 -23 10 -26 -12 -13 -22
-7 -25 16 -2 14 -9 21 -21 20 -11 0 -16 4 -14 11 3 7 -8 21 -24 32 -24 16 -29
26 -29 62 0 31 4 42 15 42 18 0 20 17 3 22 -17 6 -25 398 -8 398 6 0 8 5 5 10
-8 13 8 13 21 0 16 -16 44 -1 56 29 10 23 12 24 16 6 3 -12 -4 -26 -18 -37z
m4756 17 c18 -14 40 -25 48 -25 9 0 16 -7 16 -15 0 -10 10 -15 30 -15 17 0 30
4 30 9 0 18 57 8 69 -11 7 -11 10 -22 7 -25 -3 -3 -32 -6 -66 -8 -34 -1 -64
-5 -67 -9 -3 -3 2 -15 12 -26 18 -20 17 -20 -8 -20 -24 0 -32 9 -28 33 0 4
-17 7 -40 7 -22 0 -38 4 -34 9 3 5 1 12 -5 16 -6 4 -8 10 -5 15 8 12 -31 23
-56 15 -18 -6 -20 -3 -17 22 2 22 9 29 31 31 15 2 27 8 27 13 0 16 22 10 56
-16z m-738 -12 c-3 -14 -12 -17 -36 -15 -27 3 -34 -1 -43 -25 -6 -16 -13 -22
-16 -15 -7 19 -23 14 -23 -8 0 -13 -9 -22 -27 -26 -15 -4 -38 -13 -52 -20 -16
-8 -27 -10 -29 -4 -5 14 24 40 44 40 12 0 15 3 8 10 -6 6 -25 7 -43 4 -30 -6
-32 -10 -27 -35 5 -25 2 -29 -17 -29 -17 0 -22 6 -24 30 -2 27 3 32 53 55 30
14 70 25 89 25 19 0 35 4 35 9 0 9 19 12 93 19 13 1 17 -4 15 -15z m1009 -82
c11 -36 27 -61 39 -61 7 0 15 -9 19 -20 3 -11 18 -25 33 -32 14 -7 32 -24 39
-38 16 -31 17 -87 1 -96 -8 -5 -9 0 -6 14 4 12 2 25 -3 28 -5 3 -9 16 -9 30 0
15 -6 24 -16 24 -11 0 -14 -6 -9 -20 3 -11 3 -20 -2 -21 -4 0 -23 -2 -41 -3
-18 -2 -35 0 -37 5 -3 4 -12 6 -19 3 -15 -6 -31 29 -21 45 3 5 22 8 43 5 l37
-4 -32 10 c-38 12 -46 35 -9 26 13 -3 32 -9 41 -12 15 -6 15 -4 4 15 -8 11
-22 21 -32 21 -11 0 -22 12 -28 30 -8 22 -17 30 -35 30 -15 0 -24 6 -24 15 0
8 5 15 11 15 5 0 8 4 5 9 -3 4 6 6 20 3 14 -2 28 -12 31 -21z m4213 22 c0 -5
-7 -17 -15 -27 -19 -25 -19 -47 -2 -40 8 3 19 -1 25 -8 8 -10 4 -13 -16 -13
-15 0 -33 4 -40 9 -11 6 -13 -4 -10 -52 2 -47 5 -58 15 -50 7 6 18 8 25 5 27
-10 33 -7 40 15 l6 23 1 -22 c1 -13 -8 -32 -19 -43 -11 -11 -20 -26 -20 -32 0
-7 -5 -5 -11 5 -11 18 -39 24 -39 8 0 -14 67 -64 78 -58 12 8 38 -10 29 -20
-5 -4 -11 -2 -15 4 -10 16 -49 -18 -57 -50 -4 -15 -13 -31 -21 -38 -18 -15
-18 -58 0 -65 8 -3 21 -22 29 -42 9 -20 24 -46 35 -58 20 -21 42 -58 42 -70 0
-4 -13 5 -30 21 -16 16 -30 35 -30 42 0 18 -17 16 -24 -3 -11 -30 -6 -44 17
-45 21 0 21 -1 2 -9 -31 -13 -45 -11 -45 6 0 8 -5 12 -11 9 -6 -4 -8 -13 -6
-19 3 -7 2 -28 -2 -47 -4 -19 -7 35 -6 121 2 216 2 215 19 201 11 -9 12 -6 8
14 -3 19 0 25 13 25 10 0 15 6 13 18 -5 26 -31 21 -39 -8 -9 -34 -11 -14 -9
113 1 100 4 112 28 148 25 36 42 49 42 32z m-9280 -570 c0 -7 8 -13 18 -13 23
0 53 -50 46 -77 -5 -19 -64 -61 -74 -53 -3 3 -6 -12 -8 -32 -3 -31 3 -44 27
-70 25 -27 32 -30 45 -19 14 12 16 10 16 -8 0 -34 -15 -55 -59 -86 -23 -15
-41 -36 -41 -46 0 -10 -4 -21 -10 -24 -6 -4 -10 8 -10 29 0 20 5 36 11 36 8 0
7 5 -1 15 -17 20 -5 32 15 15 13 -11 19 -11 32 3 15 14 15 18 -1 42 -17 26
-18 26 -37 9 -18 -16 -19 -16 -19 4 0 11 4 23 9 26 5 4 5 23 -1 46 -8 30 -7
44 2 55 10 12 10 19 2 27 -11 11 -17 68 -8 68 2 0 11 3 20 6 11 4 16 1 16 -10
0 -9 -7 -16 -15 -16 -18 0 -20 -21 -3 -38 23 -23 56 -9 70 30 7 17 -13 40 -44
51 -10 4 -18 16 -18 28 0 15 -5 19 -15 15 -16 -6 -19 12 -8 53 5 22 7 21 24
-15 10 -22 18 -45 19 -51z m4766 -58 c68 -69 129 -125 136 -125 9 0 8 -3 -2
-10 -8 -5 -40 -10 -70 -10 -71 -1 -129 -14 -210 -47 -75 -32 -60 -41 29 -18
110 28 201 35 261 20 l55 -13 -76 5 c-64 5 -92 1 -175 -22 -54 -15 -101 -29
-102 -31 -2 -1 2 -19 9 -39 11 -30 14 -33 20 -17 4 11 16 22 27 24 18 5 18 3
7 -18 -13 -25 -9 -84 6 -84 5 0 27 16 49 36 22 20 42 35 43 33 2 -2 8 -31 15
-64 9 -45 19 -67 42 -87 l30 -28 -35 0 c-24 0 -34 -4 -29 -11 9 -16 137 -3
181 17 18 9 49 35 68 57 19 22 35 35 35 27 0 -18 -75 -86 -108 -98 -15 -6 -45
-17 -67 -26 l-40 -15 36 0 c56 -1 102 23 164 86 49 50 58 55 66 41 7 -13 3
-38 -15 -88 -13 -38 -20 -72 -16 -75 5 -3 10 3 13 12 2 10 3 -47 2 -127 l-3
-144 -33 -29 c-83 -70 -362 -180 -487 -193 -56 -6 -63 -4 -182 55 -258 126
-341 226 -365 436 -6 57 -5 59 10 40 17 -20 17 -19 10 5 -4 14 -11 27 -15 30
-8 6 -30 46 -30 55 0 3 3 4 8 2 4 -3 8 9 10 26 4 40 9 70 12 77 2 5 10 -21 32
-105 19 -71 29 -85 71 -92 49 -8 117 34 117 72 0 14 5 25 10 25 30 0 -22 139
-61 163 -26 16 -24 27 6 27 14 0 25 4 25 9 0 5 14 14 31 20 17 6 54 27 82 48
29 20 57 36 64 36 7 0 10 3 8 7 -2 4 7 18 22 31 l26 24 -16 -25 c-9 -13 -17
-28 -17 -33 0 -21 32 20 75 93 24 43 49 82 55 85 6 4 7 11 4 17 -4 7 -2 8 4 4
7 -4 12 -2 12 4 0 7 7 10 15 6 13 -5 20 10 16 37 -3 19 21 -2 135 -118z
m-4244 -30 c7 7 99 -56 112 -77 8 -13 7 -27 -3 -50 -8 -18 -14 -43 -13 -55 0
-13 -4 -23 -9 -23 -5 0 -9 5 -9 11 0 6 -20 33 -44 60 -30 33 -45 61 -50 88 -3
21 -9 48 -12 58 -5 17 -5 17 9 1 8 -10 16 -15 19 -13z m8758 4 c0 -6 9 -22 20
-36 11 -14 17 -30 13 -36 -4 -6 -10 -2 -16 11 -6 12 -15 22 -21 22 -18 0 -56
-30 -56 -44 0 -24 37 -56 64 -56 19 0 26 -5 26 -20 0 -23 -18 -27 -26 -5 -4 8
-10 15 -15 15 -12 0 -11 -28 1 -32 9 -3 8 -11 -18 -88 -4 -12 -6 -12 -9 3 -9
37 -23 14 -23 -38 0 -30 5 -55 10 -55 6 0 10 4 10 8 0 4 9 8 20 8 23 0 24 -6
8 -41 -12 -26 -28 -34 -28 -13 0 6 -3 8 -7 5 -3 -4 -8 -36 -10 -72 -3 -52 0
-67 12 -71 8 -4 15 -13 15 -22 0 -23 42 -80 62 -86 14 -3 18 -14 18 -46 0 -46
-16 -84 -31 -74 -14 8 -39 -15 -39 -37 0 -24 18 -33 36 -18 19 16 30 4 14 -16
-17 -20 -37 -19 -52 4 -9 15 -16 17 -30 10 -16 -9 -18 -5 -19 33 0 24 -1 67
-2 96 -1 30 1 56 6 59 4 2 7 -1 7 -8 0 -8 4 -8 15 1 17 14 20 46 6 55 -6 3
-14 -3 -20 -12 -8 -13 -10 20 -11 118 0 75 -3 156 -6 181 -6 40 -3 48 21 70
22 21 25 29 17 44 -10 18 -11 18 -17 2 -14 -37 -22 -16 -20 50 3 58 7 73 29
97 14 15 26 32 26 36 0 5 5 9 10 9 6 0 10 -5 10 -11z m-588 -61 c-7 -7 -12
-20 -12 -30 0 -10 -14 -25 -32 -34 -50 -25 -67 -44 -74 -80 -3 -18 -12 -38
-20 -45 -8 -6 -14 -21 -14 -33 0 -11 -4 -27 -9 -35 -13 -20 -35 59 -33 117 1
60 23 89 95 123 64 30 122 40 99 17z m141 -580 c4 -29 3 -48 -3 -48 -6 0 -10
-7 -10 -15 0 -9 -6 -18 -14 -21 -8 -3 -17 -16 -20 -30 -8 -30 -19 -30 -39 0
-9 13 -23 31 -33 41 -17 16 -17 19 1 51 10 19 22 34 26 34 5 0 13 -18 19 -40
6 -21 15 -42 20 -45 5 -3 5 8 -1 27 -14 50 -11 111 8 137 l17 24 11 -34 c7
-19 15 -55 18 -81z m-8347 -11 c19 -34 -28 -157 -59 -157 -33 0 -72 149 -60
227 l5 33 52 -41 c28 -22 56 -50 62 -62z m8040 -102 c89 -13 131 -55 114 -112
-5 -17 -9 -21 -9 -10 -1 12 -7 17 -18 14 -51 -14 -72 -16 -78 -7 -3 5 -12 7
-20 3 -10 -3 -15 1 -15 12 0 9 5 13 11 9 9 -5 10 1 5 22 -10 39 -25 53 -18 17
6 -35 0 -30 -28 26 -16 33 -18 42 -7 38 8 -3 36 -9 63 -12z m713 -135 c10 -22
20 -37 24 -34 3 3 13 -8 22 -25 18 -36 11 -40 -22 -10 -21 20 -23 21 -29 4 -4
-10 -1 -20 6 -25 11 -7 11 -11 1 -24 -16 -19 -7 -49 24 -80 28 -28 55 -79 55
-103 -1 -11 -8 -4 -21 19 -20 39 -52 63 -69 53 -15 -9 -12 -23 9 -44 14 -14
22 -16 31 -8 9 9 11 8 9 -3 -2 -8 5 -32 15 -53 15 -31 16 -40 5 -53 -17 -21
-61 -42 -76 -37 -14 5 -18 93 -5 93 5 0 7 -13 4 -30 -5 -34 18 -50 43 -30 22
18 19 51 -5 57 -18 5 -24 15 -21 36 0 4 -6 7 -14 7 -11 0 -15 12 -15 50 0 40
3 48 15 44 8 -4 15 -1 15 4 0 6 -7 17 -15 26 -11 11 -15 39 -15 110 0 53 2 96
5 96 4 0 14 -18 24 -40z m-335 -322 c-17 -57 -27 -74 -69 -115 -29 -28 -45
-53 -45 -68 0 -13 -5 -27 -11 -30 -6 -4 -9 2 -8 17 4 46 -1 99 -9 94 -12 -7
-13 -66 -1 -66 6 0 3 -10 -5 -22 -9 -12 -16 -31 -16 -42 0 -11 -3 -17 -6 -14
-3 4 -2 38 2 78 6 59 12 77 35 103 16 17 29 27 29 22 0 -6 4 -5 8 1 8 13 83
63 95 63 5 1 5 -9 1 -21z m-3664 -56 c0 -4 -23 -15 -50 -25 -56 -20 -140 -96
-158 -144 -5 -15 -16 -56 -22 -90 -8 -37 -17 -60 -23 -56 -6 4 -7 -4 -3 -21 4
-18 3 -25 -4 -21 -5 3 -10 39 -10 78 0 91 29 157 92 212 55 48 178 94 178 67z
m7 -52 c8 0 12 -4 8 -10 -3 -5 12 -14 34 -20 22 -6 42 -14 45 -19 6 -9 -73
-21 -136 -21 -20 0 -40 -4 -43 -10 -3 -5 -14 -10 -23 -10 -10 0 -32 -13 -50
-29 -28 -27 -32 -36 -32 -84 0 -69 28 -114 93 -146 62 -30 156 -31 243 -2 101
34 306 130 346 161 20 17 40 30 43 30 14 0 -74 -76 -111 -96 -21 -11 -90 -48
-152 -82 -62 -34 -121 -62 -130 -62 -10 0 -22 -4 -28 -10 -9 -9 -179 10 -219
26 -60 23 -112 94 -114 155 -3 106 108 248 183 234 16 -3 35 -5 43 -5z m108
-106 l30 -14 -30 6 -30 5 28 -26 c31 -29 37 -51 8 -34 -24 16 -51 5 -51 -20 0
-10 -7 -22 -16 -25 -8 -3 -12 -10 -9 -16 3 -5 1 -10 -4 -10 -6 0 -11 8 -11 18
0 21 -37 59 -47 49 -3 -4 2 -16 11 -26 14 -16 15 -23 6 -41 -15 -29 -51 -23
-68 12 -7 15 -22 30 -33 33 -25 8 -20 41 12 84 19 25 22 26 97 23 42 -3 91
-11 107 -18z m3907 -28 c12 -21 1 -37 -11 -17 -5 7 -14 10 -20 7 -8 -5 -4 -14
11 -27 l23 -20 -22 6 c-19 5 -23 2 -23 -14 0 -31 13 -26 59 24 23 25 44 45 46
45 11 0 4 -30 -9 -37 -7 -4 -19 -19 -25 -31 -11 -21 -10 -27 9 -47 12 -13 19
-29 15 -35 -5 -8 -15 -3 -31 16 -30 39 -58 24 -62 -32 l-2 -39 18 24 c11 13
24 21 31 17 14 -9 15 -36 1 -36 -5 0 -10 -9 -10 -21 0 -16 -4 -19 -20 -14 -17
6 -20 2 -20 -29 l0 -34 33 29 c17 16 42 38 55 49 l22 19 0 -24 c0 -14 -3 -24
-7 -23 -14 4 -53 -13 -53 -23 0 -5 0 -12 0 -16 0 -5 5 -8 11 -8 7 0 13 -15 15
-33 5 -40 -28 -94 -51 -85 -16 6 -20 -14 -7 -34 6 -9 12 -7 25 7 17 20 67 28
67 11 0 -5 -7 -15 -17 -22 -12 -10 -17 -11 -20 -2 -7 20 -33 2 -33 -23 0 -14
11 -32 30 -46 17 -12 30 -28 30 -35 0 -22 -45 13 -65 52 -11 18 -23 31 -27 29
-5 -3 2 -25 16 -48 14 -24 26 -54 28 -68 2 -13 11 -37 21 -51 19 -29 23 -97 6
-97 -6 0 -8 8 -4 20 6 18 -19 80 -32 80 -12 0 -43 -33 -43 -47 0 -15 16 -17
25 -3 10 17 22 11 28 -12 7 -27 -9 -39 -40 -31 -27 6 -28 -2 -9 -39 12 -23 12
-29 0 -45 -16 -21 -18 -53 -4 -53 6 0 10 3 10 8 1 11 80 96 85 90 3 -3 -12
-31 -33 -64 -20 -32 -44 -72 -51 -89 -16 -34 -23 -183 -10 -191 5 -3 9 -20 9
-37 0 -18 9 -50 19 -71 18 -34 18 -37 3 -31 -9 3 -2 -7 16 -24 17 -16 32 -35
32 -41 0 -15 -55 29 -68 55 -9 16 -11 8 -11 -38 l-1 -57 24 15 c22 15 24 14
29 -4 6 -24 0 -31 -25 -31 -10 0 -18 -4 -18 -10 0 -5 7 -10 15 -10 18 0 19 -5
3 -30 -10 -16 -9 -24 11 -50 27 -37 18 -56 -9 -20 l-20 25 0 -30 c0 -16 -3
-47 -6 -67 -5 -25 -3 -38 5 -38 6 0 11 6 11 14 0 8 9 24 20 37 l20 24 -12 -30
c-7 -16 -20 -42 -30 -56 -10 -15 -15 -35 -11 -47 7 -27 19 -28 33 -2 6 11 15
20 20 20 21 0 9 -28 -25 -59 -40 -36 -45 -69 -15 -96 11 -10 20 -25 20 -34 0
-12 -3 -12 -12 -3 -29 29 -38 -3 -13 -51 16 -32 10 -64 -10 -47 -6 5 -15 7
-18 4 -3 -4 -6 279 -7 628 0 615 0 636 19 660 11 13 23 37 26 51 6 22 4 27
-10 27 -13 0 -16 -6 -12 -21 4 -15 3 -19 -4 -12 -10 10 -19 229 -10 238 2 3
10 -3 17 -13 18 -24 49 -4 49 33 0 36 -15 41 -43 15 -11 -11 -23 -20 -25 -20
-2 0 -2 19 -1 43 2 23 3 105 3 183 1 137 2 141 22 139 12 -1 26 -9 31 -19z
m-428 -218 c-4 -81 -23 -166 -42 -196 -12 -18 -82 60 -82 92 0 25 24 41 42 29
7 -3 8 -1 4 6 -4 6 5 22 22 36 16 13 35 38 42 55 7 16 14 30 15 30 1 0 1 -24
-1 -52z m-3174 18 c0 -8 -165 -100 -224 -125 -52 -22 -76 -25 -166 -26 -80 0
-113 4 -140 18 -22 10 -26 14 -11 11 48 -12 176 -7 213 9 20 8 39 13 42 10 4
-5 112 33 126 44 2 2 -1 8 -9 12 -10 6 -9 10 4 14 10 5 14 3 9 -5 -10 -16 50
-3 96 21 34 18 60 25 60 17z m2852 -42 c52 -16 67 -34 60 -70 -5 -28 -8 -29
-28 -9 -9 8 -23 15 -32 15 -11 0 -5 -10 18 -29 19 -16 32 -32 28 -36 -4 -4
-29 -8 -55 -8 -55 -1 -126 33 -151 72 l-16 23 57 -5 c51 -4 57 -3 57 15 0 11
-5 29 -11 40 -10 18 -9 20 7 14 11 -5 40 -14 66 -22z m-2309 -27 c37 -8 71
-18 74 -21 8 -8 -421 -8 -469 0 -21 4 -35 10 -32 15 3 5 -2 9 -11 9 -9 0 -13
5 -9 11 9 16 357 4 447 -14z m-5754 -35 c14 -14 26 -33 27 -41 3 -23 33 -132
40 -142 9 -16 -44 -9 -101 12 -45 17 -62 30 -95 76 -44 61 -48 73 -25 73 8 0
15 5 15 10 0 6 -5 10 -12 10 -6 0 -8 3 -4 7 3 4 -4 13 -16 20 -19 10 -10 11
62 6 74 -5 88 -9 109 -31z m5699 -66 c96 -13 144 -26 93 -26 -12 0 -19 -4 -16
-10 9 -14 -400 -13 -467 1 -70 15 -96 28 -77 40 22 14 352 10 467 -5z m-398
-89 c81 -25 110 -55 110 -114 0 -36 -9 -49 -40 -56 -14 -3 -36 -8 -50 -12
l-25 -7 21 19 c32 27 48 63 35 76 -8 8 -11 5 -11 -11 0 -29 -38 -62 -73 -62
l-29 0 25 29 c17 21 23 37 20 55 -5 25 -64 86 -83 86 -6 0 -10 4 -10 8 0 13
47 8 110 -11z m363 -58 c33 -15 51 -51 43 -86 -4 -15 -8 -35 -10 -43 -7 -36
-20 -50 -42 -50 -13 0 -24 -4 -24 -9 0 -5 10 -7 23 -4 18 5 20 3 10 -8 -7 -7
-27 -14 -45 -15 -17 -1 -50 -5 -72 -8 -98 -14 -154 -17 -160 -8 -3 6 -30 8
-60 6 -30 -2 -58 1 -61 6 -3 6 -17 7 -30 4 -12 -3 -26 -1 -29 5 -4 6 -20 11
-37 11 -16 0 -29 5 -29 11 0 7 24 8 73 3 74 -7 91 1 21 11 -87 12 -103 16
-115 32 -13 14 -9 15 46 7 76 -11 152 -11 189 -1 24 7 28 6 22 -9 -6 -15 4
-16 102 -12 116 3 143 13 141 52 -1 17 -2 17 -6 4 -6 -25 -37 -22 -84 7 -45
29 -57 50 -42 74 18 29 129 42 176 20z m923 -76 c16 -41 47 -36 41 6 -2 14 -2
20 0 14 3 -8 23 -13 53 -13 45 0 49 2 53 28 2 15 3 -7 1 -48 -6 -157 -20 -214
-51 -203 -16 6 -16 5 -4 -10 12 -15 11 -16 -19 -11 -22 5 -35 3 -41 -7 -12
-20 -12 153 1 186 9 23 8 26 -9 20 -15 -4 -22 3 -35 35 -9 22 -16 46 -15 53 0
7 3 6 6 -3 3 -8 12 -30 19 -47z m-2976 -59 c0 -9 -5 -12 -11 -8 -7 4 -9 0 -6
-12 13 -48 17 -82 31 -259 27 -337 28 -355 18 -355 -12 0 -36 211 -28 245 4
16 3 24 -3 21 -10 -6 -14 13 -33 149 -15 107 -15 180 1 218 11 28 31 29 31 1z
m445 -229 c-3 -31 -17 -95 -31 -143 -13 -48 -31 -139 -40 -202 -10 -75 -20
-120 -31 -130 -35 -34 9 349 58 497 7 23 17 33 31 33 19 0 20 -4 13 -55z
m-4476 16 c38 -35 39 -64 6 -95 -14 -13 -25 -31 -25 -40 0 -19 11 -21 28 -4 6
6 14 9 17 6 3 -3 -10 -23 -29 -44 -21 -23 -36 -50 -36 -64 l0 -25 -20 25 c-11
14 -20 32 -20 40 0 13 1 13 10 0 5 -8 13 -11 17 -6 4 4 0 13 -10 20 -9 7 -17
25 -17 40 0 24 2 26 15 12 8 -8 15 -22 15 -30 0 -19 16 -21 26 -4 4 6 0 16 -9
23 -10 7 -17 15 -17 19 0 4 -10 20 -21 36 -24 32 -20 72 9 102 23 23 25 22 61
-11z m571 -847 c49 -20 80 -64 45 -64 -16 0 -35 -30 -35 -57 0 -10 -10 -24
-21 -32 -20 -12 -21 -11 -17 7 4 14 2 19 -7 15 -8 -2 -18 5 -25 16 -6 12 -18
21 -27 21 -20 0 -42 29 -43 56 0 14 11 27 33 38 40 20 47 20 97 0z m2703 -16
c12 -6 27 -18 34 -27 6 -8 21 -16 34 -16 25 0 33 -13 19 -35 -7 -12 -15 -13
-39 -3 -39 14 -44 7 -15 -22 34 -34 30 -50 -6 -23 -16 12 -30 26 -30 30 0 5
-4 6 -10 3 -13 -8 -13 -52 0 -60 6 -4 17 -2 25 5 16 13 28 -1 19 -24 -5 -13
-14 -15 -40 -10 -25 5 -34 3 -34 -7 0 -11 -2 -11 -10 1 -5 8 -10 32 -10 53 0
30 7 44 36 72 23 22 30 35 20 35 -8 0 -18 -5 -22 -11 -11 -19 -24 13 -13 33
11 21 14 22 42 6z m771 -90 c10 -26 15 -52 12 -57 -7 -11 33 -83 44 -79 4 2
26 27 49 56 38 48 99 95 139 109 9 3 -26 -38 -79 -91 -53 -53 -94 -98 -92
-100 3 -2 14 4 26 14 48 41 167 120 167 110 0 -5 -35 -35 -77 -67 -43 -31 -81
-61 -85 -66 -3 -6 -6 -29 -6 -52 1 -51 -28 -102 -71 -128 -17 -10 -31 -14 -31
-8 0 6 9 15 20 21 11 6 27 24 35 40 23 44 19 140 -6 140 -6 0 -5 -9 1 -20 13
-23 5 -59 -13 -61 -7 -1 -19 -3 -27 -4 -8 -1 -28 -3 -44 -4 -21 -1 -27 -5 -22
-17 4 -11 -2 -9 -25 7 l-31 22 7 -34 c4 -19 14 -41 22 -50 12 -15 11 -17 -7
-22 -26 -7 -40 24 -40 92 0 67 27 89 125 100 l50 6 -32 15 c-21 9 -33 22 -34
35 0 11 -2 52 -5 90 -6 77 3 78 30 3z m-4099 -15 c17 -16 40 -8 52 19 5 13 12
17 16 11 3 -5 -8 -29 -26 -53 -31 -43 -32 -43 -38 -19 -7 23 -7 23 -8 -4 -1
-24 11 -60 26 -77 3 -3 17 11 33 30 16 19 32 31 36 27 4 -4 -6 -22 -23 -40
-33 -35 -36 -72 -3 -42 16 15 17 14 13 -10 -3 -14 0 -32 7 -40 8 -9 8 -20 2
-31 -8 -14 -10 -13 -16 10 -8 34 -39 34 -54 1 -16 -35 -15 -49 7 -76 l18 -23
27 29 c17 19 26 23 26 13 0 -9 -7 -21 -15 -28 -17 -15 -20 -40 -4 -40 6 0 9
-7 5 -15 -3 -8 1 -21 9 -29 8 -8 15 -25 15 -38 -1 -21 -2 -20 -14 7 -17 37
-43 72 -49 65 -2 -3 -8 -15 -11 -27 -6 -17 -3 -23 8 -23 8 0 20 -9 26 -19 14
-28 13 -38 -3 -17 -17 23 -53 17 -50 -8 0 -11 -4 -15 -12 -12 -9 3 -15 -5 -18
-22 -2 -15 -4 16 -4 68 0 52 2 76 4 53 5 -50 13 -54 31 -14 11 25 10 33 -8 65
-12 19 -19 40 -15 46 3 5 1 10 -4 10 -7 0 -11 51 -10 153 1 83 4 143 6 133 3
-11 11 -26 18 -33z m9155 -99 c0 -4 -11 -19 -25 -36 -14 -16 -26 -39 -27 -51
0 -12 -2 -28 -2 -35 -3 -31 -56 -43 -56 -12 0 35 -34 23 -94 -34 l-58 -54 4
53 c5 60 44 130 81 144 42 17 177 35 177 25z m111 -44 c5 0 9 5 9 10 0 6 7 10
16 10 12 0 14 -7 9 -28 -4 -20 0 -34 16 -50 12 -14 18 -30 15 -39 -4 -9 -9
-13 -13 -10 -9 10 -43 -12 -43 -28 0 -8 9 -24 20 -35 26 -26 27 -72 3 -68 -53
8 -59 -66 -13 -141 18 -28 28 -55 24 -65 -4 -9 -1 -16 6 -16 8 0 10 -8 7 -21
-3 -12 -1 -33 4 -48 12 -31 -6 -17 -25 21 -8 15 -20 22 -35 21 -12 -2 -20 1
-17 5 2 4 1 14 -5 22 -6 10 -9 -7 -9 -51 0 -73 14 -96 50 -84 12 4 20 2 20 -5
0 -7 -9 -14 -20 -17 -11 -3 -20 -9 -20 -14 0 -17 -20 -9 -21 9 0 11 -2 12 -6
4 -7 -18 5 -62 17 -62 6 0 16 11 22 25 6 14 16 25 21 25 5 0 7 -11 5 -25 -3
-14 -1 -25 3 -25 5 0 16 -11 25 -26 13 -19 14 -28 5 -37 -8 -8 -11 -7 -11 4 0
8 -6 24 -14 34 -13 18 -14 18 -39 -7 -25 -25 -28 -68 -5 -68 5 0 7 -4 3 -9
-13 -22 15 -19 38 4 21 22 26 23 31 9 10 -26 7 -32 -13 -27 -11 3 -28 -4 -39
-15 l-21 -21 -13 29 c-7 16 -15 27 -18 25 -4 -2 -8 92 -9 210 -2 167 1 215 10
215 10 0 10 3 1 12 -8 8 -12 54 -12 142 0 115 2 128 14 110 15 -19 15 -19 36
2 13 12 18 27 14 37 -7 19 -34 23 -50 7 -7 -7 -10 5 -10 34 -1 38 1 42 13 30
8 -8 19 -14 24 -14z m-5401 -191 c19 -24 63 -78 97 -120 l63 -77 57 30 c84 43
206 118 223 137 8 10 23 20 33 24 9 3 20 15 24 24 10 26 34 41 56 35 16 -4 18
-1 12 18 -7 21 -5 22 26 16 27 -4 45 1 86 24 29 17 57 39 63 50 13 24 30 26
30 5 0 -8 5 -15 11 -15 6 0 -47 -30 -118 -66 -119 -62 -207 -117 -117 -75 21
11 57 27 79 37 22 9 76 34 120 55 86 41 135 56 135 43 0 -5 -12 -19 -27 -32
-16 -13 -22 -21 -15 -17 6 3 12 4 12 0 0 -3 -57 -34 -127 -69 -71 -35 -200
-100 -288 -146 -88 -45 -161 -82 -163 -81 -1 1 -16 -6 -33 -14 -16 -9 -39 -13
-49 -10 -15 5 -18 3 -14 -9 4 -11 1 -16 -10 -16 -9 0 -16 -6 -16 -12 -1 -7
-10 -2 -21 12 -12 14 -34 40 -51 59 -99 109 -227 327 -213 364 6 14 17 2 54
-56 25 -40 62 -93 81 -118z m4821 170 c20 -20 20 -21 2 -42 -11 -12 -37 -57
-59 -101 -21 -43 -46 -81 -54 -84 -8 -3 -23 -12 -33 -20 -28 -25 -41 -1 -39
75 1 61 0 66 -13 49 -13 -17 -15 -17 -21 -3 -10 26 3 61 33 92 56 56 145 73
184 34z m-5544 -281 c26 -19 35 -34 46 -83 15 -68 11 -93 -9 -46 -18 43 -27
39 -19 -10 5 -26 4 -39 -2 -36 -6 4 -10 -8 -11 -26 0 -17 -6 -33 -11 -35 -6
-2 -11 -8 -11 -14 0 -6 6 -8 13 -5 8 3 20 1 28 -5 11 -8 11 -9 -3 -5 -9 4 -19
-1 -22 -10 -4 -9 -14 -13 -26 -10 -11 3 -23 1 -26 -4 -3 -5 -9 -9 -14 -9 -6 0
0 17 11 37 18 32 19 42 10 74 -6 21 -23 47 -36 57 -30 24 -31 45 -5 106 24 52
39 56 87 24z m-3106 -65 c-43 -34 -55 -58 -40 -84 8 -15 18 -20 35 -16 20 3
24 1 19 -12 -4 -10 3 -7 19 8 28 27 36 18 10 -10 -12 -13 -13 -22 -5 -38 18
-32 12 -48 -8 -22 -12 16 -20 20 -25 12 -4 -7 -3 -18 3 -25 8 -9 2 -15 -24
-25 -30 -11 -34 -15 -25 -32 16 -28 58 -25 72 6 12 28 28 33 28 10 0 -8 -12
-22 -26 -31 -22 -15 -25 -22 -19 -50 5 -31 4 -33 -19 -28 -18 3 -26 -1 -31
-16 -16 -51 -25 -11 -24 108 1 70 5 110 8 90 l6 -36 24 19 23 19 -31 32 c-23
24 -31 41 -30 67 0 30 7 41 42 67 49 35 65 24 18 -13z m472 -24 c20 -5 37 -14
37 -18 0 -17 -27 -61 -33 -54 -4 3 -7 2 -7 -4 0 -6 -17 -21 -37 -34 -29 -17
-34 -24 -20 -27 21 -4 23 -22 1 -22 -8 0 -22 -7 -30 -15 -9 -8 -21 -15 -27
-15 -15 0 -47 55 -47 81 0 26 -6 24 -41 -13 -21 -23 -28 -27 -23 -13 15 41 37
65 60 65 12 0 26 5 29 10 3 6 23 19 43 30 28 14 32 19 16 20 -11 0 -29 -7 -40
-15 -22 -16 -34 -19 -34 -6 0 10 67 39 95 40 11 0 37 -4 58 -10z m3373 -81
c-6 -53 -6 -53 9 -23 l15 30 -5 -35 c-10 -63 -53 -491 -57 -563 -2 -41 -12
-56 -22 -32 -3 8 -18 15 -33 15 -26 0 -26 -1 -7 -15 25 -19 5 -19 -37 1 -20 9
-24 13 -11 10 12 -2 22 -1 22 4 0 12 -49 19 -53 7 -1 -5 -10 -3 -18 6 -8 8
-42 30 -74 48 -45 25 -54 34 -40 39 22 8 187 -52 171 -62 -6 -4 3 -8 20 -8 30
0 32 3 37 43 4 23 11 119 17 212 13 205 43 375 66 375 3 0 3 -24 0 -52z m834
-2 c0 -7 7 -19 15 -26 9 -7 13 -21 9 -35 -6 -25 14 -45 26 -26 5 8 15 0 30
-26 13 -21 23 -41 22 -45 -1 -4 5 -5 13 -2 21 8 48 -4 39 -17 -4 -8 -9 -7 -15
2 -5 8 -9 9 -9 3 0 -6 6 -17 14 -23 11 -9 18 -8 30 4 9 9 21 13 26 10 16 -10
-8 -35 -32 -35 -10 0 -21 -8 -25 -17 -9 -26 -65 -83 -75 -77 -4 3 -8 1 -8 -5
0 -5 -3 -17 -7 -27 -5 -14 -3 -16 11 -11 9 4 15 3 12 -2 -3 -5 4 -11 17 -15
18 -5 20 -8 7 -16 -21 -14 -30 -12 -30 5 0 17 -2 18 -24 9 -32 -12 -14 -46 44
-87 30 -21 50 -22 50 -2 0 9 9 15 22 15 l22 0 -21 -15 c-13 -9 -20 -22 -17
-30 7 -18 -7 -20 -24 -3 -9 9 -12 8 -12 -5 0 -14 -3 -15 -19 -5 -11 7 -22 22
-26 35 -3 13 -12 24 -20 24 -8 1 -21 2 -27 3 -7 0 -13 8 -13 16 -1 8 -7 25
-14 38 -16 30 -10 66 12 70 10 2 16 -2 15 -8 -6 -27 21 -19 30 10 6 16 16 30
22 30 6 0 15 11 20 25 5 14 14 25 20 25 5 0 10 8 10 18 -1 20 -54 82 -71 82
-7 0 -27 18 -46 40 -36 42 -53 50 -53 25 0 -17 -25 -20 -35 -5 -3 6 -1 10 4
10 6 0 11 7 11 16 0 10 6 14 14 11 9 -4 16 4 20 24 6 29 36 42 36 15z m-113
-131 c5 -60 11 -186 12 -280 1 -93 5 -173 9 -176 15 -13 193 23 306 62 90 31
121 37 127 28 8 -14 -91 -69 -124 -69 -11 0 -15 -5 -11 -11 4 -7 0 -9 -14 -5
-13 4 -26 0 -38 -11 -10 -10 -51 -25 -95 -34 -71 -14 -80 -14 -95 0 -15 15
-16 14 -11 -1 5 -14 1 -18 -22 -18 -16 0 -42 -3 -58 -6 l-30 -6 -7 254 c-3
139 -9 285 -12 323 -6 65 -5 69 10 50 15 -20 15 -20 16 1 0 26 12 38 21 22 4
-7 11 -62 16 -123z m1284 -32 c6 -16 5 -31 -3 -46 -12 -23 -13 -22 -23 36 -7
41 -25 51 -25 12 0 -13 -7 -43 -16 -65 -20 -51 -9 -79 45 -113 46 -28 69 -31
98 -12 32 21 29 35 -7 35 -33 0 -50 24 -31 43 8 8 11 8 11 -1 0 -9 4 -9 18 -1
12 7 33 9 55 5 33 -6 37 -10 37 -36 0 -31 -59 -110 -60 -80 0 13 -2 13 -9 1
-15 -23 -69 -24 -83 -2 -11 18 -13 18 -24 3 -11 -15 -14 -14 -38 1 -14 10 -26
23 -26 30 0 8 4 7 10 -3 8 -12 10 -9 10 12 0 15 -7 31 -17 36 -13 8 -15 19
-10 62 5 44 4 50 -8 40 -8 -6 -19 -9 -25 -5 -18 11 -11 25 14 25 25 0 36 16
36 55 0 23 1 23 31 8 17 -8 35 -26 40 -40z m124 -13 c3 -5 12 -7 19 -4 8 3 17
1 20 -5 4 -6 13 -8 21 -4 8 3 15 0 15 -5 0 -6 9 -14 20 -17 11 -3 20 -15 20
-26 0 -10 4 -19 9 -19 5 0 9 -11 9 -25 0 -13 -4 -23 -8 -20 -9 5 -22 -36 -14
-44 3 -3 9 1 14 9 8 13 10 13 10 -1 0 -9 -34 -34 -90 -63 -87 -46 -90 -47
-132 -35 -24 7 -47 17 -53 22 -7 7 -3 7 10 2 44 -17 104 -13 131 9 73 56 85
71 88 108 2 20 0 42 -4 49 -10 15 -80 40 -80 28 0 -5 -4 -9 -10 -9 -5 0 -10 7
-10 15 0 20 -17 19 -28 -1 -7 -12 -11 -13 -17 -5 -8 14 22 51 41 51 7 0 15 -4
19 -10z m1427 -72 c12 -7 29 -20 39 -29 9 -9 25 -21 35 -27 15 -9 17 -13 7
-23 -7 -7 -13 -19 -13 -26 0 -8 6 -13 13 -12 54 7 61 -15 20 -58 -16 -16 -32
-37 -38 -46 -5 -10 -23 -19 -40 -20 -29 -2 -45 -13 -45 -31 0 -4 12 -5 27 -1
l28 7 -25 -24 c-14 -13 -27 -19 -29 -14 -4 11 -50 -42 -62 -71 -5 -13 -15 -23
-24 -23 -19 0 -20 36 0 44 10 3 15 19 15 42 0 33 2 36 24 30 22 -5 45 8 34 20
-9 8 -143 14 -154 7 -6 -5 -16 -17 -22 -28 -11 -19 -11 -19 -12 3 0 40 34 62
98 62 71 0 102 19 102 61 0 31 -25 79 -42 79 -5 0 -6 -15 -2 -35 8 -43 -8 -65
-45 -64 -16 1 -19 3 -9 6 21 5 32 37 24 69 -5 17 -2 24 8 24 19 0 27 47 9 54
-24 10 -2 28 28 24 15 -3 26 -1 23 4 -7 12 3 10 28 -4z m-7022 -43 c-6 -8 -9
-18 -6 -23 3 -5 -1 -23 -9 -39 -8 -16 -16 -39 -18 -51 -2 -12 -7 -25 -12 -29
-4 -5 -5 3 -2 16 3 14 0 29 -7 37 -14 13 -14 13 -7 -63 1 -7 7 -13 15 -13 8 0
22 22 32 53 9 28 21 58 27 65 8 10 7 16 -4 23 -10 6 -7 9 14 9 23 0 27 -4 27
-29 0 -60 -44 -131 -81 -131 -9 0 -19 -6 -22 -12 -6 -18 -15 -8 -20 22 -2 14
-7 33 -12 43 -15 35 4 86 43 112 41 28 61 33 42 10z m8828 -80 l-4 -33 27 19
c40 28 42 24 14 -21 -29 -47 -43 -100 -26 -100 6 0 11 4 11 10 0 5 11 12 25
16 28 7 65 -18 65 -44 0 -13 -3 -13 -18 1 -26 24 -51 21 -63 -7 -10 -20 -8
-29 7 -49 11 -13 25 -22 32 -19 6 2 12 -1 12 -7 0 -6 -4 -11 -8 -11 -4 0 -16
-22 -26 -50 -10 -27 -22 -47 -27 -44 -5 3 -9 -4 -9 -15 0 -10 -3 -26 -6 -35
-3 -9 -1 -16 4 -16 6 0 14 10 17 23 10 32 56 70 69 57 8 -8 6 -14 -6 -21 -9
-5 -26 -23 -38 -39 -20 -27 -20 -31 -5 -59 8 -17 24 -35 35 -41 11 -6 20 -20
20 -31 0 -18 -2 -17 -24 8 -21 24 -26 26 -41 13 -21 -17 -34 -50 -28 -67 7
-19 19 -16 43 9 l20 22 -1 -25 c-1 -13 3 -37 10 -52 13 -34 14 -37 2 -37 -5 0
-14 14 -20 30 -5 17 -12 30 -15 30 -2 0 -14 -15 -25 -34 -23 -37 -28 -80 -8
-73 6 2 11 11 9 19 -3 18 31 35 36 19 2 -6 8 -9 13 -5 5 3 9 -2 9 -11 0 -8 -8
-19 -17 -22 -10 -4 -22 -12 -26 -20 -4 -7 -15 -13 -22 -13 -11 0 -15 -12 -15
-41 0 -24 4 -38 10 -34 6 3 10 14 10 23 1 16 47 58 56 50 9 -10 -23 -75 -48
-99 -30 -28 -37 -59 -13 -59 8 0 19 -9 25 -20 6 -12 19 -19 32 -17 15 1 23 -4
26 -18 2 -13 0 -16 -5 -8 -5 7 -17 10 -28 9 -11 -2 -31 6 -44 18 l-24 21 17
-32 c9 -18 21 -33 26 -33 13 0 50 -60 49 -80 0 -9 -4 -6 -11 8 -14 28 -35 29
-43 2 -5 -15 0 -26 18 -40 23 -18 24 -23 15 -62 -6 -29 -6 -44 1 -46 6 -2 11
-13 11 -24 0 -15 -5 -18 -17 -14 -30 12 -63 -32 -63 -82 0 -54 -9 -51 -14 4
-2 32 3 44 26 67 35 36 35 41 1 34 l-28 -6 0 624 c0 343 4 621 8 618 5 -3 7
-20 5 -38z m-6798 11 c0 -17 -92 -101 -133 -123 -17 -8 -51 -18 -76 -22 -40
-5 -46 -10 -55 -39 -5 -17 -12 -32 -17 -32 -4 0 -4 14 1 30 5 17 5 30 0 30 -4
0 -11 -17 -15 -37 -14 -76 -55 -119 -201 -216 -90 -59 -154 -127 -195 -208
-18 -35 -34 -58 -37 -50 -3 11 -6 11 -12 0 -7 -10 -14 -9 -35 5 -15 10 -36 15
-47 13 -26 -7 -33 15 -14 51 12 23 27 33 76 46 67 19 80 16 60 -11 -7 -10 4 0
24 21 20 22 36 42 36 45 0 3 -14 12 -30 19 -35 16 -33 21 28 86 49 53 83 59
126 25 l27 -22 -6 34 c-5 32 -2 37 59 86 51 41 67 61 76 92 6 22 16 43 22 48
7 4 40 8 75 9 58 2 66 5 115 47 90 76 148 105 148 73z m3981 -53 c6 -16 20
-46 30 -68 l20 -40 -25 28 c-24 26 -26 27 -26 7 0 -11 12 -32 26 -45 15 -14
21 -25 15 -25 -7 0 -9 -5 -6 -10 4 -6 21 -8 40 -4 19 3 35 1 39 -5 4 -6 1 -11
-6 -11 -10 0 -9 -3 2 -10 22 -14 5 -23 -19 -10 -12 6 -21 7 -21 3 0 -18 17
-32 45 -39 29 -7 29 -7 5 -16 -16 -6 -26 -5 -32 4 -6 10 -10 10 -17 -1 -7 -11
-12 -8 -26 13 -9 14 -15 32 -12 40 6 16 -11 36 -30 36 -19 0 -32 -40 -23 -70
4 -14 9 -32 11 -40 2 -8 7 -17 11 -20 3 -3 -5 -18 -18 -33 -21 -25 -24 -26
-24 -8 0 10 -7 47 -16 81 -12 47 -13 64 -4 75 7 8 17 12 23 8 6 -4 7 -1 3 6
-5 7 -1 20 7 29 21 25 29 95 13 117 -12 17 -14 16 -24 -15 -7 -18 -9 -36 -7
-40 3 -5 0 -12 -6 -16 -8 -4 -9 -3 -5 4 11 17 -9 15 -24 -3 -9 -11 -16 -12
-25 -5 -10 8 -15 8 -20 0 -5 -8 -11 -8 -17 -2 -16 16 -1 30 27 24 32 -6 61 19
70 59 8 37 32 37 46 2z m-241 -19 c44 -24 87 -64 68 -64 -9 0 -24 8 -33 17
-45 45 -128 67 -165 43 -8 -5 -13 -10 -10 -10 3 0 31 -2 63 -5 62 -4 84 -15
98 -52 7 -18 13 -21 36 -14 15 4 39 5 53 1 14 -4 35 -3 48 1 12 5 22 5 22 -1
0 -13 -16 -21 -53 -24 -19 -2 -38 -6 -43 -9 -6 -3 -29 -3 -52 0 -36 5 -45 11
-58 39 -14 30 -21 34 -55 34 -37 0 -39 -1 -38 -32 0 -18 8 -46 18 -63 17 -28
22 -30 87 -33 99 -3 111 -8 140 -52 22 -33 49 -110 39 -110 -2 0 -10 -3 -18
-6 -11 -4 -14 2 -11 26 3 25 -4 38 -35 71 -38 38 -42 39 -108 39 -91 1 -133
35 -133 109 0 36 -16 49 -37 28 -12 -12 -13 -23 -5 -54 l10 -38 2 35 2 35 16
-47 c20 -54 54 -94 88 -102 15 -4 24 -14 24 -25 0 -17 -6 -19 -47 -15 -27 3
-52 10 -58 15 -6 6 3 7 23 3 53 -11 36 11 -25 32 -67 22 -83 45 -83 120 0 53
11 69 70 106 47 29 109 29 160 2z m641 -21 c23 -21 53 -55 66 -75 13 -21 29
-38 37 -38 8 0 17 -7 20 -16 3 -9 12 -14 20 -11 8 3 31 -7 52 -22 22 -16 49
-32 62 -35 12 -4 20 -11 18 -15 -3 -4 3 -7 12 -7 77 0 125 -6 107 -13 -11 -5
-51 -7 -90 -6 -55 2 -72 -1 -81 -14 -19 -25 -28 -6 -10 21 17 26 11 45 -9 28
-8 -6 -18 -5 -31 5 -18 14 -18 15 0 8 13 -4 17 -2 14 8 -3 8 -11 14 -19 14
-22 1 -73 27 -89 47 -10 12 -22 16 -39 11 -21 -5 -22 -10 -17 -45 7 -45 -24
-117 -54 -125 -10 -3 -16 -11 -14 -18 3 -7 -5 -15 -18 -19 -23 -7 -23 -8 4
-16 15 -4 55 -10 90 -12 57 -3 63 -1 74 21 15 30 8 52 -14 43 -15 -5 -15 -4
-3 11 15 18 36 24 26 6 -4 -6 2 -13 13 -16 12 -3 18 -11 16 -18 -3 -7 1 -12 8
-12 25 3 19 -18 -11 -42 -25 -19 -30 -20 -25 -6 6 15 5 15 -14 4 -11 -7 -18
-17 -16 -21 11 -17 -68 -11 -104 8 -15 8 -37 14 -50 14 -21 0 -22 -3 -16 -35
7 -39 0 -43 -28 -18 -17 15 -19 15 -39 -3 -30 -27 -141 -24 -195 5 -38 21 -39
21 -54 2 -12 -16 -19 -17 -40 -8 -25 10 -25 10 -2 14 12 3 22 9 22 14 0 14 52
11 84 -6 33 -18 60 -20 50 -4 -3 6 5 4 18 -5 32 -21 85 -11 116 21 12 13 22
26 22 28 0 2 -35 3 -77 2 -90 -2 -133 7 -133 28 0 19 -11 19 -36 1 -18 -14
-16 -16 29 -36 54 -24 57 -40 5 -20 -50 19 -108 21 -108 4 0 -9 -10 -14 -27
-14 -24 1 -26 2 -10 11 9 6 14 15 11 21 -10 17 16 27 47 18 21 -6 29 -5 29 4
0 8 6 19 14 26 8 6 12 18 9 26 -4 10 0 12 11 8 9 -3 16 -10 16 -14 0 -4 9 -10
21 -13 12 -3 19 -9 16 -14 -6 -10 2 -12 110 -17 46 -3 85 0 88 5 4 5 1 9 -6 9
-8 0 -6 6 4 18 10 10 17 24 17 30 0 6 11 23 24 37 14 15 27 32 29 38 2 7 7 10
10 7 3 -3 -3 -24 -13 -48 -18 -40 -18 -42 -1 -42 10 0 26 9 37 21 25 28 23
120 -5 183 -20 46 -20 47 -1 41 29 -9 25 14 -5 25 -14 5 -25 16 -25 25 0 22 5
19 51 -22z m-6008 1 c-8 -4 -2 -19 17 -46 37 -51 38 -74 3 -110 -29 -31 -53
-36 -53 -13 0 8 -4 15 -8 15 -8 0 -42 106 -42 131 0 24 10 29 54 28 23 0 36
-3 29 -5z m3127 -280 c0 -49 -21 -329 -35 -473 -5 -50 -18 -81 -34 -81 -3 0
-7 24 -7 52 -1 29 -4 78 -6 108 -5 66 32 346 58 433 11 36 24 15 24 -39z
m-1643 -63 c7 -9 13 -23 13 -32 0 -9 18 -44 41 -78 39 -58 82 -98 196 -181 26
-19 59 -47 73 -61 49 -49 161 -130 172 -123 6 4 8 3 5 -3 -6 -10 79 -73 97
-73 9 0 -41 43 -69 58 -19 11 -19 11 5 11 15 0 39 -13 60 -34 19 -19 42 -35
52 -35 9 0 21 -6 25 -14 4 -7 27 -23 49 -34 23 -12 44 -28 47 -35 3 -8 18 -18
33 -21 15 -4 41 -18 57 -32 16 -13 37 -24 47 -24 10 0 22 -5 25 -10 10 -17 83
-60 100 -60 8 0 23 -9 32 -20 10 -11 22 -20 27 -20 17 0 86 -34 86 -42 0 -4
11 -8 23 -8 13 0 32 -9 42 -20 10 -11 26 -20 35 -20 9 0 35 -9 58 -20 22 -11
45 -20 50 -20 5 0 15 -7 22 -15 7 -8 21 -15 32 -15 10 0 41 -11 68 -25 71 -36
230 -88 430 -139 250 -65 271 -71 311 -94 20 -11 47 -22 59 -24 32 -4 36 -24
8 -32 -13 -3 -104 -11 -203 -17 -185 -11 -236 -19 -125 -19 57 0 61 -2 49 -16
-12 -15 -10 -16 19 -10 25 6 32 4 32 -8 0 -10 6 -13 15 -10 8 4 15 1 15 -5 0
-6 5 -11 11 -11 6 0 9 7 5 15 -7 18 -2 18 44 -1 21 -9 26 -12 11 -10 -14 3
-30 2 -35 -3 -28 -21 -117 -34 -240 -35 -74 0 -136 1 -139 4 -4 5 -16 69 -17
96 0 6 -39 16 -87 23 -95 13 -324 68 -413 99 -275 96 -467 188 -768 366 -57
33 -117 69 -133 78 -16 10 -29 14 -29 10 0 -4 -4 -2 -8 4 -6 9 -100 74 -142
98 -30 18 26 -30 69 -58 25 -16 50 -33 55 -38 6 -5 25 -17 42 -28 26 -15 32
-26 39 -71 5 -30 7 -58 6 -62 0 -4 15 -17 34 -29 20 -11 34 -22 32 -24 -5 -5
-252 140 -362 212 -158 103 -279 192 -277 202 1 8 -2 11 -8 7 -6 -3 -14 4 -19
17 -11 30 7 58 36 58 13 0 23 4 23 9 0 13 84 -34 135 -75 41 -32 85 -58 85
-50 0 3 -28 26 -62 52 -170 129 -268 208 -268 215 0 22 40 0 211 -118 347
-239 787 -513 824 -513 18 0 0 18 -29 28 -68 25 -603 368 -591 380 2 3 -1 12
-8 20 -10 13 -9 15 3 10 11 -4 16 0 16 12 0 10 -6 16 -13 13 -7 -3 -13 -9 -13
-15 0 -5 -10 -7 -22 -3 -18 4 -17 2 5 -10 16 -9 26 -19 23 -22 -6 -7 -114 69
-165 116 -29 26 -31 32 -13 26 24 -7 31 9 8 18 -8 3 -14 15 -13 26 1 24 17 29
17 6 0 -8 4 -15 9 -15 5 0 8 6 7 13 -3 23 -18 38 -32 33 -9 -3 -11 0 -7 11 5
12 2 15 -10 10 -12 -4 -14 -2 -10 11 4 10 -4 6 -20 -10 -29 -31 -59 -40 -36
-10 8 9 20 21 27 25 10 7 2 21 -31 56 -25 27 -54 66 -65 87 -18 35 -18 43 -7
70 13 33 63 74 88 74 8 0 20 7 27 15 11 13 16 12 44 -2 17 -9 36 -23 43 -32z
m2344 -48 c20 6 25 -20 34 -178 3 -60 8 -143 11 -183 l6 -73 61 2 c34 2 67 6
72 10 6 4 10 -4 11 -22 1 -22 -3 -29 -17 -29 -10 0 -21 5 -24 10 -3 6 -11 10
-16 10 -6 0 -7 -5 -3 -11 5 -9 -1 -10 -20 -5 -14 3 -26 2 -26 -3 0 -5 -22 -9
-50 -8 l-49 2 -6 40 c-9 68 -25 343 -24 413 0 57 2 63 12 44 7 -15 17 -22 28
-19z m-4571 -82 c15 -29 12 -48 -12 -86 -25 -38 -58 -47 -58 -16 0 11 -5 23
-11 27 -9 5 -10 -7 -5 -42 8 -55 22 -76 35 -55 12 18 19 2 16 -36 -2 -34 11
-45 21 -18 8 20 24 19 24 -1 0 -20 -30 -75 -49 -90 -9 -7 -12 -18 -7 -30 7
-18 8 -17 26 6 19 25 20 25 20 3 0 -12 -9 -27 -19 -32 -10 -6 -27 -31 -37 -56
-11 -25 -22 -45 -26 -45 -5 0 -8 -15 -8 -32 l0 -33 25 28 c14 15 30 27 34 27
5 0 6 11 3 25 -4 25 4 31 24 17 14 -9 29 -53 17 -51 -19 5 -64 -15 -73 -31
-28 -52 -29 -68 -9 -94 16 -21 26 -24 52 -20 l32 5 -27 -18 c-16 -10 -28 -24
-28 -31 0 -7 -5 -10 -10 -7 -6 4 -8 10 -6 13 2 4 -5 19 -16 32 l-19 25 6 -40
c4 -22 14 -52 23 -67 65 -105 73 -121 67 -136 -6 -14 -8 -13 -16 7 -14 35 -69
102 -80 95 -5 -3 -9 63 -9 161 0 108 3 164 10 160 6 -3 10 3 10 13 0 11 7 25
15 32 20 17 19 23 -10 54 l-25 28 25 30 c14 16 25 34 25 39 0 14 -33 48 -42
43 -4 -3 -7 37 -7 88 1 51 3 86 6 77 2 -9 15 -21 29 -28 21 -9 26 -8 31 6 4 9
1 19 -5 21 -7 2 -12 15 -12 28 0 30 34 33 50 5z m1557 -124 c3 -6 -9 -23 -28
-39 l-34 -29 37 15 c52 22 58 2 8 -31 -22 -16 -73 -51 -112 -80 -39 -29 -76
-50 -80 -47 -5 3 -1 12 9 20 14 12 12 12 -14 0 -33 -16 -48 -9 -37 17 3 8 48
50 100 92 52 43 94 83 94 90 0 15 47 8 57 -8z m-282 -189 c-4 -13 -14 -28 -21
-34 -8 -7 -18 -28 -21 -48 -5 -30 -1 -42 17 -61 39 -42 111 -29 131 22 5 14
12 24 15 21 7 -7 -15 -60 -33 -80 -8 -9 -21 -14 -29 -11 -8 3 -14 0 -14 -6 0
-6 -18 -11 -40 -11 -30 0 -47 7 -65 25 -14 13 -25 21 -25 17 0 -11 -20 22 -20
33 0 6 5 3 10 -5 8 -12 10 -10 10 8 0 13 -4 20 -10 17 -16 -10 -11 57 5 79 18
24 66 56 83 56 9 0 11 -7 7 -22z m1881 -649 c27 -11 58 -24 69 -28 67 -28 79
-34 67 -38 -6 -3 -10 -9 -6 -14 3 -5 0 -9 -6 -9 -6 0 -8 -5 -5 -10 3 -6 -4
-15 -17 -20 -21 -10 -21 -10 7 -6 28 4 28 3 10 -10 -18 -14 -18 -14 0 -14 10
0 29 -10 42 -22 14 -13 23 -16 23 -9 0 7 -10 21 -22 32 -13 10 -17 18 -10 19
6 0 12 7 12 15 0 8 5 15 11 15 6 0 9 -7 5 -15 -3 -8 0 -15 7 -16 9 0 8 -2 -1
-6 -8 -3 -9 -9 -4 -16 5 -7 12 -20 15 -29 8 -22 -14 -17 -76 16 -27 15 -52 24
-57 21 -5 -3 -11 -1 -14 4 -4 5 -1 11 6 14 7 2 5 3 -5 1 -17 -2 -116 35 -182
70 -16 9 -36 16 -42 16 -7 0 -13 4 -13 9 0 5 -13 14 -30 20 -16 5 -30 12 -30
15 0 8 61 -12 77 -26 12 -10 17 -9 24 5 13 23 35 21 42 -3 4 -14 14 -20 32
-20 23 0 26 -3 22 -21 -3 -12 -3 -18 0 -15 3 3 12 -1 20 -9 16 -16 108 -21
117 -6 3 5 -6 16 -19 25 -15 10 -23 22 -19 28 5 8 1 9 -10 5 -11 -5 -15 -3
-10 5 5 7 -1 9 -19 6 -14 -3 -25 -1 -24 5 1 5 -14 15 -33 22 -19 8 -28 14 -19
14 9 1 38 -8 65 -20z m-2339 -979 c-3 -11 -2 -18 3 -15 14 9 18 -48 6 -84 -10
-27 -15 -32 -22 -21 -5 8 -18 22 -28 30 -18 14 -18 13 -11 -10 4 -14 11 -27
15 -30 5 -3 0 -15 -10 -28 l-18 -22 -21 26 c-13 17 -21 41 -21 65 0 22 -4 39
-9 39 -14 0 -21 -71 -10 -92 16 -30 3 -33 -16 -5 -18 28 -13 79 10 111 14 19
15 18 36 -7 25 -33 35 -34 43 -4 5 22 41 67 53 67 3 0 3 -9 0 -20z m7673 -90
c29 -15 53 -50 54 -79 1 -16 4 -27 8 -25 3 2 11 -9 16 -25 8 -23 7 -31 -4 -35
-8 -3 -14 -12 -14 -21 0 -8 -7 -15 -15 -15 -8 0 -15 8 -15 17 0 9 -3 14 -6 10
-10 -10 -74 43 -90 75 -14 27 -14 28 12 28 15 0 34 -10 45 -22 15 -19 18 -20
19 -6 0 21 -40 49 -88 63 -45 13 -51 30 -15 43 28 10 64 7 93 -8z m715 -210
c8 0 15 -4 15 -10 0 -5 -7 -10 -15 -10 -19 0 -19 -9 -1 -29 8 -9 16 -40 19
-69 3 -36 12 -61 26 -76 12 -12 21 -26 21 -32 0 -5 -5 -2 -10 6 -9 13 -15 10
-40 -18 -32 -35 -38 -32 -15 8 17 29 19 59 5 80 -8 13 -14 11 -37 -13 -19 -19
-24 -30 -16 -35 6 -4 13 -23 15 -42 2 -29 0 -34 -14 -32 -17 3 -22 -7 -19 -35
1 -7 -16 -17 -39 -24 -43 -13 -43 -14 -40 -71 2 -59 -7 -45 -20 28 -15 87 -49
152 -105 202 -57 50 -112 65 -211 56 -53 -5 -74 -3 -74 5 0 6 20 12 50 12 28
1 65 3 83 4 99 7 226 -94 253 -200 9 -37 22 -40 49 -11 13 14 29 26 35 26 5 0
10 18 10 40 0 23 7 51 15 63 9 14 11 27 6 36 -5 8 -7 20 -4 28 8 21 -35 62
-58 56 -10 -3 -19 0 -19 6 0 21 48 11 68 -14 21 -26 46 -33 57 -14 4 5 0 18
-8 27 -20 22 -31 67 -21 83 5 9 10 6 15 -9 5 -12 15 -22 24 -22z m-638 -121
c-60 -63 -89 -178 -52 -209 8 -7 15 -9 15 -6 0 4 11 -5 25 -20 24 -26 26 -26
77 -14 84 20 128 72 128 151 0 26 -7 50 -17 62 -18 19 -17 20 11 13 31 -8 63
-39 72 -72 7 -28 -32 -120 -62 -143 -13 -10 -51 -27 -84 -37 -51 -15 -59 -21
-54 -37 8 -26 -4 -67 -20 -67 -8 0 -17 16 -21 37 -5 26 -20 50 -51 79 l-45 41
7 -57 c4 -40 1 -74 -10 -113 -9 -30 -16 -67 -16 -81 0 -38 -38 -54 -76 -31
-16 9 -22 14 -13 11 26 -7 59 22 80 71 10 25 19 45 19 46 0 1 -14 2 -31 2 -21
0 -34 -7 -42 -22 -11 -19 -59 -63 -69 -63 -3 0 -4 16 -3 35 0 24 8 40 24 51
13 9 21 23 18 33 -3 12 4 17 30 18 29 3 33 0 33 -22 0 -14 5 -25 10 -25 21 0
30 53 24 134 -8 99 11 173 57 226 26 29 69 60 76 55 2 -1 -16 -22 -40 -46z
m-8332 -165 c-59 -43 -73 -71 -61 -119 13 -52 86 -90 153 -79 27 4 31 2 27
-13 -3 -12 7 -32 25 -53 17 -19 31 -38 31 -42 0 -5 5 -8 12 -8 6 0 3 9 -7 20
-25 27 -12 37 14 11 12 -12 30 -21 40 -21 11 0 23 -4 26 -10 10 -15 46 -12 67
7 17 15 18 15 18 -3 0 -34 -19 -42 -79 -37 -63 5 -93 19 -179 83 -32 25 -80
57 -105 72 -36 21 -48 36 -58 67 -15 51 1 95 45 122 37 22 60 25 31 3z m7555
-64 c0 -6 -1147 -9 -3202 -9 -1797 0 -3194 4 -3183 9 29 12 6385 12 6385 0z
m-2386 -107 c-19 -7 18 -74 38 -69 14 3 16 1 8 -14 -6 -10 -10 -28 -10 -40 0
-13 -9 -24 -26 -31 -37 -13 -39 -7 -9 25 25 27 25 28 8 56 -23 39 -45 23 -32
-22 10 -38 7 -43 -19 -29 -29 15 -45 14 -68 -7 -11 -10 -24 -17 -29 -16 -6 1
-22 5 -37 8 -16 4 -28 10 -28 14 0 4 12 8 28 9 56 1 62 3 62 20 0 9 -14 29
-32 45 -28 25 -30 28 -10 28 11 0 24 5 27 10 4 6 11 8 16 5 5 -4 11 0 14 7 4
9 21 12 58 9 28 -2 47 -6 41 -8z m-2497 -43 c-1 -8 -5 -17 -8 -20 -4 -3 -3
-15 2 -27 11 -29 33 -31 26 -2 -4 16 -3 18 8 9 16 -14 35 -5 35 15 0 20 22 65
32 65 4 0 8 -9 8 -20 0 -11 -4 -20 -9 -20 -5 0 -11 -7 -15 -15 -4 -10 1 -15
15 -15 11 0 17 5 14 10 -3 6 -2 10 3 10 6 0 12 -7 16 -15 3 -8 12 -15 21 -15
19 0 19 -9 0 -30 -19 -21 -10 -49 19 -60 13 -5 15 -9 6 -9 -22 -1 -35 10 -51
43 -16 33 -39 46 -39 22 0 -9 -5 -16 -11 -16 -6 0 -8 9 -4 20 5 15 3 18 -10
14 -9 -4 -13 -13 -10 -24 4 -13 -4 -21 -35 -34 -50 -20 -60 -20 -89 0 -16 12
-20 19 -12 27 16 16 13 30 -4 23 -8 -3 -15 0 -15 6 0 26 -13 -4 -14 -32 -1
-28 -21 -45 -21 -17 0 17 -42 37 -79 37 -45 0 -50 -9 -24 -38 l23 -24 -35 7
c-19 4 -39 11 -45 15 -5 4 -39 7 -75 5 -36 -1 -74 2 -85 6 -17 7 -17 8 -2 8
20 1 24 37 5 44 -19 6 -38 -3 -38 -18 0 -17 -34 -28 -59 -20 -21 6 -38 -10
-21 -20 22 -13 8 -23 -24 -18 -19 3 -36 1 -40 -6 -4 -6 -15 -11 -24 -11 -14 1
-13 4 5 19 14 11 31 17 43 14 16 -4 19 -2 13 12 -5 15 -7 60 -4 93 1 10 55 42
72 42 6 0 0 -10 -14 -23 -15 -12 -29 -38 -33 -57 -6 -34 -6 -35 10 -13 13 17
23 21 44 17 19 -4 32 0 41 10 7 8 19 12 27 9 8 -3 14 0 14 7 0 6 5 8 10 5 6
-4 8 -16 4 -27 -4 -14 -2 -19 7 -16 8 3 18 -5 24 -16 10 -21 65 -36 65 -18 0
12 -25 33 -32 27 -3 -3 -12 16 -20 42 -16 49 -9 65 17 43 11 -9 15 -10 15 -1
0 7 5 9 11 5 7 -4 7 -9 2 -13 -23 -15 -21 -52 3 -76 29 -29 31 -29 37 -12 2 6
2 2 0 -10 -2 -13 0 -23 4 -23 16 0 34 42 27 62 -5 16 -8 18 -15 7 -4 -7 -11
-11 -14 -8 -12 13 7 36 43 53 36 16 36 16 14 -2 -15 -12 -21 -24 -16 -35 10
-27 64 -18 64 10 0 23 28 -3 32 -29 2 -12 8 -23 14 -25 19 -6 23 23 8 52 -18
34 -18 45 0 45 8 0 18 -9 21 -21 5 -16 10 -18 21 -8 7 6 11 16 7 23 -4 7 -1 7
7 -1 11 -10 10 -17 -4 -37 -12 -19 -13 -26 -4 -26 7 0 19 -9 26 -20 13 -21 46
-27 57 -11 3 6 -2 14 -11 19 -10 5 -16 23 -17 45 0 21 -5 37 -9 37 -4 0 -8 5
-8 11 0 5 13 2 30 -8 16 -9 29 -24 27 -33z m671 38 c-2 -8 6 -12 22 -11 22 2
23 1 9 -10 -21 -16 -31 -57 -14 -57 7 0 16 -7 19 -16 4 -10 15 -14 33 -12 35
4 43 35 13 46 -21 8 -21 9 -5 25 9 9 21 17 26 17 5 0 9 7 9 15 0 8 8 15 18 15
11 0 18 -7 18 -20 0 -13 -7 -20 -18 -20 -25 0 -23 -26 2 -33 11 -3 20 -11 20
-17 0 -7 -7 -10 -15 -6 -10 3 -15 -1 -15 -13 0 -23 -25 -45 -41 -35 -8 4 -9 3
-5 -4 11 -19 -35 -14 -56 5 -16 14 -21 15 -28 4 -4 -8 -6 -20 -3 -28 3 -7 0
-13 -6 -13 -6 0 -11 6 -11 13 0 9 -3 8 -9 -2 -6 -10 -13 -11 -29 -2 -11 6 -31
11 -44 11 -17 0 -24 6 -24 19 0 15 3 17 13 9 8 -7 13 -7 13 0 0 5 -6 14 -13
20 -27 23 -87 -9 -66 -34 8 -10 8 -14 0 -14 -6 0 -11 5 -11 10 0 18 -22 11
-27 -9 -5 -18 -8 -19 -45 -5 -21 7 -44 13 -50 11 -6 -1 -14 10 -19 26 -4 16
-3 27 2 27 6 0 23 10 39 22 40 29 52 14 15 -18 -23 -20 -26 -27 -16 -34 19
-11 36 -3 51 26 7 13 17 24 22 24 13 0 9 -28 -4 -33 -8 -3 -7 -6 4 -6 26 -1
31 17 13 46 l-17 25 32 -18 c30 -18 32 -18 44 -1 15 20 32 22 39 5 4 -10 7
-10 18 -1 10 10 9 16 -6 33 -10 11 -13 20 -8 20 6 0 16 -7 23 -15 17 -20 33
-19 50 5 16 22 41 27 38 8z m2429 5 c-9 -2 -15 -8 -12 -13 3 -5 1 -11 -5 -15
-5 -3 -10 1 -10 9 0 9 -7 16 -15 16 -23 0 -18 -18 10 -36 14 -9 25 -23 25 -30
0 -8 8 -14 17 -14 14 0 13 -4 -6 -24 -33 -35 -10 -40 31 -6 26 22 35 36 31 50
-7 28 11 25 31 -5 17 -26 36 -25 69 3 16 14 17 14 12 1 -4 -10 4 -20 20 -29
14 -7 25 -19 25 -27 0 -7 5 -13 10 -13 14 0 12 -17 -2 -23 -7 -2 -24 0 -37 5
-19 6 -22 11 -13 20 7 7 12 15 12 19 0 13 -33 19 -46 8 -8 -6 -21 -9 -29 -5
-9 3 -20 -2 -27 -14 -9 -14 -16 -16 -25 -8 -9 7 -14 6 -18 -3 -3 -9 -21 -14
-48 -14 -23 0 -45 -4 -49 -10 -5 -6 -8 -3 -8 6 0 23 -46 42 -71 29 -10 -6 -19
-15 -19 -20 0 -6 -9 -5 -20 2 -23 15 -26 28 -6 28 8 0 17 7 20 16 4 12 13 14
31 10 14 -4 34 -2 46 4 18 10 19 9 14 -13 -9 -35 11 -43 28 -11 13 25 12 29
-20 63 -18 20 -33 39 -33 44 0 4 24 6 53 6 28 -1 44 -3 34 -6z m-3947 -12 c0
-6 12 -6 32 0 17 5 33 7 34 6 2 -2 -7 -14 -20 -28 -17 -18 -22 -33 -19 -52 4
-23 11 -27 37 -27 62 0 97 50 62 89 -13 14 -11 16 20 18 32 3 48 -11 22 -19
-8 -3 -4 -13 11 -29 l22 -24 -30 -3 c-17 -2 -31 -8 -31 -14 0 -5 7 -7 16 -4 9
3 25 -1 37 -9 21 -15 21 -15 -12 -9 -25 5 -32 4 -27 -4 4 -7 2 -20 -3 -29 -9
-16 -10 -14 -11 10 0 28 -17 37 -26 14 -3 -8 -18 -12 -35 -11 -23 2 -28 -1
-20 -9 6 -6 11 -15 11 -20 0 -6 -11 2 -24 16 -17 18 -27 23 -32 15 -4 -6 5
-21 22 -35 l29 -23 -32 0 c-18 0 -33 5 -33 11 0 5 5 7 11 4 9 -6 4 4 -18 44
-1 2 -11 -7 -22 -20 -11 -13 -20 -19 -21 -13 0 5 6 16 13 23 10 10 5 18 -23
42 -40 34 -50 36 -50 9 0 -13 7 -20 20 -20 16 0 19 -6 16 -30 -4 -33 -12 -47
-22 -37 -4 4 -2 13 4 20 15 18 5 27 -29 27 -40 0 -45 17 -14 48 17 17 25 34
22 48 -3 16 0 21 10 17 7 -3 13 -10 13 -17 0 -13 41 -42 54 -38 5 2 4 -3 -2
-11 -18 -21 4 -38 33 -25 21 9 22 14 13 47 -6 20 -15 42 -20 49 -7 8 -7 12 1
12 6 0 11 -4 11 -9z m3570 -5 c0 -8 19 -29 43 -48 52 -40 119 -112 108 -116
-4 -1 -24 13 -45 33 -37 35 -70 49 -46 20 10 -12 9 -15 -4 -15 -9 0 -29 -8
-44 -17 -23 -15 -25 -15 -14 -1 10 13 10 19 -3 32 -21 21 -27 20 -58 -4 -15
-12 -32 -17 -42 -14 -14 6 -13 9 9 23 17 11 22 21 17 30 -7 11 -14 10 -35 -4
-31 -20 -30 -17 -11 -58 11 -21 11 -26 3 -15 -16 19 -64 29 -61 11 1 -6 -4
-14 -13 -17 -26 -10 16 52 52 76 18 12 30 27 27 34 -3 8 4 10 21 7 14 -3 26
-10 26 -15 0 -6 9 -7 23 -3 12 4 30 7 40 6 10 0 16 6 14 12 -2 7 -12 11 -21
11 -11 -1 -16 6 -16 22 0 15 6 24 15 24 8 0 15 -6 15 -14z m570 -6 c10 0 20
-9 23 -20 9 -34 35 -34 88 -1 56 35 73 40 39 13 -21 -17 -21 -19 -5 -35 11
-11 25 -15 40 -11 21 5 27 0 42 -30 l17 -36 13 31 c17 40 17 39 -7 39 -11 0
-20 5 -20 12 0 6 -7 20 -17 30 -9 10 -11 18 -5 18 6 0 14 -5 17 -10 4 -6 15
-8 24 -5 17 5 48 -19 44 -34 -2 -10 31 -61 39 -61 5 0 11 6 13 13 6 14 63 16
83 3 19 -12 27 1 12 19 -10 13 -10 19 4 33 9 10 16 24 16 30 0 18 47 14 54 -4
3 -8 10 -13 15 -10 12 8 41 -4 41 -16 0 -6 -7 -8 -15 -4 -24 9 -18 -20 8 -41
34 -27 36 -45 8 -73 -23 -24 -23 -21 -5 24 5 14 4 17 -4 12 -8 -5 -12 0 -12
13 0 27 -15 34 -42 20 l-23 -13 25 -7 c25 -7 25 -7 2 -8 -13 -1 -33 -6 -44
-12 -17 -9 -24 -8 -34 6 -14 18 -44 14 -44 -6 0 -7 8 -18 18 -25 16 -12 16
-13 0 -14 -9 0 -19 4 -22 9 -3 4 -19 11 -36 15 -20 3 -37 16 -48 36 -9 16 -21
30 -25 30 -5 0 -5 -5 -2 -10 4 -6 1 -17 -5 -25 -9 -11 -9 -15 -1 -15 6 0 20
-9 31 -20 15 -15 16 -20 6 -20 -8 0 -18 5 -21 10 -3 6 -17 10 -31 10 -15 0
-24 6 -24 15 0 25 -45 40 -75 27 -35 -16 -37 -15 -23 7 9 15 9 23 -1 35 -10
12 -17 13 -39 3 -15 -6 -30 -15 -33 -20 -7 -10 -89 72 -88 88 0 5 3 4 6 -2 2
-7 13 -13 23 -13z m920 -10 c0 -10 8 -21 19 -25 10 -3 34 -21 54 -40 25 -24
41 -32 56 -28 11 3 21 9 21 12 0 9 28 7 53 -4 26 -11 33 2 14 23 -16 18 -15
18 23 18 54 0 68 16 40 44 -30 30 -19 37 13 8 33 -29 22 -63 -22 -73 -17 -4
-31 -11 -31 -16 0 -6 6 -7 13 -4 6 4 3 -1 -7 -9 -24 -19 -38 -20 -54 -4 -6 6
-14 9 -17 6 -4 -3 4 -15 16 -27 12 -11 19 -24 15 -28 -4 -5 -19 5 -32 21 -14
15 -26 27 -28 25 -2 -2 -8 -14 -15 -26 -13 -25 -43 -21 -39 5 2 9 -10 23 -25
31 -27 15 -29 15 -53 -12 -36 -42 -112 -43 -134 -2 -14 27 -46 36 -36 10 3 -8
1 -15 -5 -15 -5 0 -12 7 -15 15 -8 20 -29 19 -60 -1 -19 -13 -28 -14 -37 -5
-9 9 -3 20 25 47 36 33 37 34 48 14 12 -23 30 -27 30 -5 0 9 6 12 15 9 8 -4
15 -12 15 -20 0 -8 7 -14 15 -14 8 0 15 2 15 5 0 16 -32 65 -47 74 -15 8 -12
10 14 9 30 -1 33 -4 43 -51 7 -33 7 -53 1 -57 -6 -3 -6 -11 -1 -20 12 -19 40
4 40 34 0 12 7 31 15 43 10 15 12 24 5 28 -16 10 8 35 26 28 8 -3 14 -13 14
-23z m-5605 -211 c11 -11 -158 -13 -882 -9 -553 2 -553 2 -553 -18 0 -25 -12
-34 -34 -26 -23 9 -20 24 4 24 13 0 20 7 20 18 0 17 11 19 117 21 65 1 118 3
119 4 8 7 1201 -6 1209 -14z m290 11 c4 -7 11 -8 18 -2 14 11 122 11 133 0 12
-12 92 -9 96 3 3 9 10 9 23 2 12 -7 48 -8 93 -4 40 4 76 3 78 -1 3 -4 36 -7
74 -6 38 0 68 4 66 7 -2 3 25 7 60 7 35 1 61 -3 58 -8 -3 -5 29 -8 75 -7 48 2
78 6 74 12 -4 6 7 7 28 3 36 -6 343 -8 632 -4 92 2 167 -1 167 -6 0 -5 7 -3
15 4 8 7 23 9 37 4 29 -9 4042 -9 4838 1 327 4 592 4 588 0 -3 -4 -80 -7 -170
-8 -160 -1 -161 -1 -48 -6 l115 -6 -125 -6 c-69 -3 -267 -5 -440 -3 -173 1
-1671 3 -3327 3 -2329 1 -3013 4 -3013 13 0 9 -3 9 -12 0 -19 -19 -154 -16
-162 3 -6 17 19 21 29 5z"/>
</g>
</svg>
